<?xml version="1.0" standalone="no"?>
<!DOCTYPE svg PUBLIC "-//W3C//DTD SVG 20010904//EN"
 "http://www.w3.org/TR/2001/REC-SVG-20010904/DTD/svg10.dtd">
<svg version="1.0" xmlns="http://www.w3.org/2000/svg"
 width="225.000000pt" height="225.000000pt" viewBox="0 0 225.000000 225.000000"
 preserveAspectRatio="xMidYMid meet">

<g transform="translate(0.000000,225.000000) scale(0.100000,-0.100000)"
fill="#000000" stroke="none">
<path d="M939 2235 c-367 -69 -670 -298 -824 -619 -80 -169 -110 -302 -109
-496 0 -124 4 -161 27 -254 53 -213 156 -393 309 -543 148 -144 320 -239 525
-290 95 -24 127 -27 263 -26 140 0 166 3 270 31 233 61 410 170 570 349 387
435 367 1112 -45 1528 -150 151 -330 252 -545 305 -112 28 -333 36 -441 15z
m441 -110 c108 -28 269 -104 350 -165 523 -390 574 -1127 108 -1576 -88 -85
-143 -124 -250 -178 -181 -91 -368 -126 -564 -106 -232 24 -438 119 -609 281
-271 258 -382 639 -289 997 46 175 126 321 249 451 173 182 377 286 640 325
76 11 272 -4 365 -29z"/>
<path d="M1037 2019 c-367 -37 -676 -297 -779 -655 -31 -106 -33 -340 -4 -454
21 -86 79 -217 127 -287 81 -119 219 -238 354 -305 127 -63 219 -83 390 -83
125 1 164 4 235 24 486 132 767 636 625 1124 -118 409 -521 679 -948 636z
m131 -215 c22 -15 22 -17 22 -294 0 -263 1 -280 19 -289 25 -14 54 -78 47
-104 -5 -18 33 -60 215 -243 238 -238 249 -255 199 -296 -48 -39 -60 -31 -295
202 -172 171 -227 220 -246 220 -33 0 -90 38 -106 70 -25 50 -7 139 31 153 13
5 16 49 18 287 3 265 4 282 22 296 25 18 46 18 74 -2z"/>
</g>
</svg>
