<?xml version="1.0" standalone="no"?>
<!DOCTYPE svg PUBLIC "-//W3C//DTD SVG 20010904//EN"
 "http://www.w3.org/TR/2001/REC-SVG-20010904/DTD/svg10.dtd">
<svg version="1.0" xmlns="http://www.w3.org/2000/svg"
 width="32.000000pt" height="32.000000pt" viewBox="0 0 32.000000 32.000000"
 preserveAspectRatio="xMidYMid meet">

<g transform="translate(0.000000,32.000000) scale(0.100000,-0.100000)"
fill="#000000" stroke="none">
<path d="M88 300 c-80 -43 -110 -139 -66 -215 28 -47 89 -85 138 -85 77 0 159
82 160 158 0 117 -130 197 -232 142z m119 -1 c67 -25 111 -99 98 -165 -8 -45
-57 -100 -101 -114 -100 -33 -209 62 -190 165 12 62 82 124 143 125 12 0 34
-5 50 -11z"/>
<path d="M111 273 c-102 -53 -101 -175 2 -226 65 -33 145 7 168 83 10 32 9 44
-7 76 -35 71 -103 98 -163 67z m59 -58 c0 -38 6 -51 36 -85 20 -22 34 -43 31
-47 -7 -7 -93 67 -91 79 1 5 2 28 3 53 1 59 21 59 21 0z"/>
</g>
</svg>
